<svg data-v-423bf9ae="" xmlns="http://www.w3.org/2000/svg" viewBox="0 0 364 90" class="iconLeft"><!----><defs data-v-423bf9ae=""><linearGradient data-v-423bf9ae="" gradientTransform="rotate(25)" id="2c83aa73-2f91-4aaf-9b81-5f232ed69ce2" x1="0%" y1="0%" x2="100%" y2="0%"><stop data-v-423bf9ae="" offset="0%" style="stop-color: rgb(24, 27, 128); stop-opacity: 1;"></stop><stop data-v-423bf9ae="" offset="100%" style="stop-color: rgb(24, 30, 217); stop-opacity: 1;"></stop></linearGradient></defs><!----><g data-v-423bf9ae="" id="e447d71d-9d5a-48c0-8139-66ddf5e4dbcd" fill="#ffffff" transform="matrix(4.746835314106284,0,0,4.746835314106284,115.30915803093956,-4.936707890696567)"><path d="M0.34 5.47L3.54 5.47L3.54 13.65L4.76 13.65L4.76 5.47L7.97 5.47L7.97 4.40L0.34 4.40ZM10.32 13.85C12.40 13.85 13.29 12.32 13.29 10.33C13.29 8.25 12.29 7.03 10.32 7.03C8.27 7.03 7.32 8.44 7.32 10.33C7.32 12.47 8.20 13.85 10.32 13.85ZM10.32 12.92C9.16 12.92 8.53 12.08 8.53 10.47C8.53 8.88 9.16 7.95 10.32 7.95C11.47 7.95 12.08 8.85 12.08 10.47C12.08 11.96 11.47 12.92 10.32 12.92ZM14.27 8.12L15.36 8.12L15.36 11.76C15.36 12.78 15.67 13.79 16.94 13.79C17.91 13.79 18.35 13.22 18.65 12.50L17.79 12.12C17.65 12.63 17.43 12.87 17.08 12.87C16.63 12.87 16.48 12.50 16.48 11.70L16.48 8.12L18.30 8.12L18.30 7.22L16.48 7.22L16.48 5.32L15.46 5.32L15.39 7.22L14.27 7.22ZM19.64 11.12C19.54 12.42 20.61 13.85 22.79 13.85C24.95 13.85 26.07 12.67 26.07 11.23C26.07 8.01 21.14 9.02 21.14 6.52C21.14 5.70 21.76 5.21 22.79 5.21C24.08 5.21 24.74 5.80 24.78 6.93L25.96 6.68C26.03 5.22 24.77 4.20 22.85 4.20C21.01 4.20 19.89 5.17 19.89 6.66C19.89 10.18 24.82 9.09 24.82 11.42C24.82 12.32 24.00 12.84 22.82 12.84C21.69 12.84 20.83 12.25 20.82 10.86ZM27.82 16.84L28.94 16.84L28.94 12.96C29.32 13.50 30.00 13.85 30.81 13.85C32.69 13.85 33.66 12.24 33.66 10.23C33.66 8.62 33.07 7.03 31.07 7.03C30.07 7.03 29.33 7.49 28.90 8.15L28.90 7.22L27.82 7.22ZM30.72 12.92C29.36 12.92 28.94 11.59 28.94 10.50C28.94 9.39 29.34 7.95 30.83 7.95C32.10 7.95 32.45 8.89 32.45 10.32C32.45 11.63 32.16 12.92 30.72 12.92ZM38.02 13.85C40.11 13.85 40.99 12.32 40.99 10.33C40.99 8.25 40.00 7.03 38.02 7.03C35.98 7.03 35.03 8.44 35.03 10.33C35.03 12.47 35.91 13.85 38.02 13.85ZM38.02 12.92C36.86 12.92 36.23 12.08 36.23 10.47C36.23 8.88 36.86 7.95 38.02 7.95C39.17 7.95 39.79 8.85 39.79 10.47C39.79 11.96 39.17 12.92 38.02 12.92ZM41.97 8.12L43.06 8.12L43.06 11.76C43.06 12.78 43.37 13.79 44.65 13.79C45.61 13.79 46.06 13.22 46.35 12.50L45.50 12.12C45.36 12.63 45.14 12.87 44.79 12.87C44.34 12.87 44.18 12.50 44.18 11.70L44.18 8.12L46.00 8.12L46.00 7.22L44.18 7.22L44.18 5.32L43.16 5.32L43.09 7.22L41.97 7.22ZM47.22 11.86C47.08 13.27 48.51 13.85 49.81 13.85C51.28 13.85 52.35 13.12 52.35 11.84C52.35 9.46 48.58 10.36 48.58 8.75C48.58 8.20 49.06 7.95 49.78 7.95C50.93 7.95 51.10 8.64 51.02 9.09L52.14 8.89C52.36 7.64 51.20 7.03 49.84 7.03C48.22 7.03 47.43 7.87 47.43 8.95C47.43 11.28 51.17 10.49 51.17 12.05C51.17 12.64 50.60 12.92 49.77 12.92C48.69 12.92 48.22 12.38 48.29 11.69Z"></path></g><!----><g data-v-423bf9ae="" id="c70eed5f-1c02-4443-bd6a-ec46c73eaf11" transform="matrix(1.7307692307692308,0,0,1.7307692307692308,-6.647692405260528,-14.065384057851944)" stroke="none" fill="#ffffff"><g data-name="Layer 2"><path d="M41 8.3H23.72a4.36 4.36 0 0 0-4.36 4.36v15.28a4.36 4.36 0 0 0 4.36 4.36H41a4.36 4.36 0 0 0 4.36-4.36V12.66A4.36 4.36 0 0 0 41 8.3zm-8.64 16a4 4 0 1 1 4-4 4 4 0 0 1-4 4zM8.72 60.3H26a4.36 4.36 0 0 0 4.36-4.36V40.66A4.36 4.36 0 0 0 26 36.3H8.72a4.36 4.36 0 0 0-4.36 4.36v15.28a4.36 4.36 0 0 0 4.36 4.36zm4.16-10l3.41-5.37a1.27 1.27 0 0 1 2.15 0l3.41 5.37a1.27 1.27 0 0 1-1.07 2H14a1.27 1.27 0 0 1-1.12-2zM56 36.3H38.72a4.36 4.36 0 0 0-4.36 4.36v15.28a4.36 4.36 0 0 0 4.36 4.36H56a4.36 4.36 0 0 0 4.36-4.36V40.66A4.36 4.36 0 0 0 56 36.3zm-4.64 14.32a1.68 1.68 0 0 1-1.68 1.68H45a1.68 1.68 0 0 1-1.68-1.68V46A1.68 1.68 0 0 1 45 44.3h4.65a1.68 1.68 0 0 1 1.71 1.7z"></path></g></g><!----></svg>